<svg width="30" height="21" viewBox="0 0 30 21" fill="none" xmlns="http://www.w3.org/2000/svg">
<path d="M26.3356 0H3.66444C1.64396 0 0 1.64396 0 3.66444V16.7021C0 18.7226 1.64396 20.3666 3.66444 20.3666H26.3356C28.356 20.3666 30 18.7226 30 16.7021V3.66483C30.0004 1.64396 28.3564 0 26.3356 0ZM24.545 2.39063L15 8.54012L5.45502 2.39063H24.545ZM26.3356 17.9763H3.66444C2.96199 17.9763 2.39063 17.4046 2.39063 16.7025V3.73257L14.2625 11.3666C14.2784 11.3766 14.2956 11.3834 14.3119 11.3925C14.329 11.4021 14.3466 11.4113 14.3641 11.42C14.4561 11.4674 14.551 11.5057 14.6478 11.5308C14.6577 11.5336 14.6677 11.5348 14.6777 11.5372C14.784 11.5623 14.8916 11.5778 14.9992 11.5778H15C15.0008 11.5778 15.0016 11.5778 15.0016 11.5778C15.1092 11.5778 15.2168 11.5627 15.3231 11.5372C15.3331 11.5348 15.3431 11.5336 15.353 11.5308C15.4498 11.5057 15.5443 11.4674 15.6367 11.42C15.6542 11.4113 15.6718 11.4021 15.6889 11.3925C15.7052 11.3834 15.7224 11.3766 15.7383 11.3666L27.6102 3.73257V16.7021C27.6098 17.4046 27.038 17.9763 26.3356 17.9763Z" fill="black"/>
</svg>
